<svg width="342" height="134" viewBox="0 0 342 134" fill="none" xmlns="http://www.w3.org/2000/svg">
<g filter="url(#filter0_d_84_10703)">
<circle cx="67" cy="63" r="59" fill="#F58A07" stroke="black" stroke-width="8"/>
<path d="M64.2545 21.6899C66.3857 20.4564 69.0596 21.1539 71.3267 21.6575C78.4441 23.7567 85.4065 26.3594 92.2916 29.1109C94.6683 30.0345 97.226 31.2551 98.4013 33.6643C99.1055 36.6287 98.1624 39.6126 97.3486 42.4479C95.2948 49.0423 92.9633 55.5526 90.6898 62.0759C92.2656 66.2029 93.7511 70.4656 93.8609 74.9479C93.8609 82.8017 90.8189 90.6941 85.1806 96.2291C78.3279 103.392 67.6259 106.524 57.9895 104.29C49.2381 102.397 41.4426 96.3196 37.703 88.1559C35.21 82.8533 34.6157 76.8726 35.2164 71.0921C36.4177 62.2244 42.0883 54.2092 49.8452 49.8173C50.9367 49.1069 52.377 48.5837 52.8162 47.2402C55.7548 39.5739 57.9831 31.6039 61.7807 24.2928C62.3428 23.2141 63.2082 22.3164 64.2545 21.6899ZM63.628 28.2905C66.1274 27.8901 68.4267 26.5985 69.7185 24.3638C67.0188 23.4144 62.7302 24.7448 63.628 28.2905ZM67.0058 31.5717C64.7001 36.2541 62.8723 41.1821 61.445 46.2069C64.4354 46.2005 67.4773 46.0196 70.3967 46.827C76.0674 47.7699 80.9954 51.025 85.258 54.7258C86.7823 50.4179 88.1966 46.0713 89.6177 41.7312C90.4249 39.1669 90.5219 35.7761 87.8673 34.2648C83.1138 31.8364 77.9403 30.2929 72.8186 28.846C70.4741 28.1098 68.0133 29.4081 67.0058 31.5717ZM49.4706 54.7C44.6073 58.3492 41.0486 63.8714 39.8536 69.8457C39.337 72.2804 40.4027 74.7736 42.5405 76.0458C47.7526 74.5863 50.0647 69.1998 52.7646 65.034C54.476 61.9079 57.8538 60.1188 59.4364 56.9155C60.1339 55.5332 59.953 53.4922 58.3965 52.7819C55.4061 51.1543 52.0863 53.2145 49.4706 54.7Z" fill="black"/>
<path d="M63.628 28.2905C62.7302 24.7448 67.0189 23.4143 69.7186 24.3638C68.4267 26.5985 66.1274 27.8901 63.628 28.2905Z" fill="black"/>
</g>
<path d="M147.013 37.8203H160.945L165.958 42.3125V52.4687L158.048 47.5208V44.6562H149.91V51.8828L165.958 64.513V80.0078L160.945 84.5H147.013L142 80.0078V69.8516L149.91 74.7995V77.6641H158.048V68.0286L142 55.4961V42.3125L147.013 37.8203ZM170.841 37.8203L189.754 37.8854L194.734 42.345V59.0768L189.754 63.5364H179.533L186.857 55.4635V44.6888H178.719V84.5H170.841V37.8203ZM204.63 37.8203H218.563L223.576 42.3125V80.0078L218.563 84.5H204.63L199.617 80.0078V42.3125L204.63 37.8203ZM207.527 44.6562V77.6641H215.665V44.6562H207.527ZM234.676 37.8203H253.296L253.263 44.8515H245.711V84.5H237.931V44.8515H228.458L234.676 37.8203ZM264.428 37.8203H283.048L283.016 44.8515H275.464V84.5H267.684V44.8515H258.211L264.428 37.8203ZM287.964 37.8203H307.723V44.8515H295.776V57.2213H306.16L299.943 64.1224H295.776V77.4687H307.918V84.5H287.964V37.8203ZM312.833 37.8203L331.746 37.8854L336.727 42.345V57.026L329.695 63.3411L336.727 84.4349H328.882L321.134 61.2252L328.849 53.9987V44.6888H320.711V84.5H312.833V37.8203Z" fill="black"/>
<path d="M147.013 37.8203V36.403H146.471L146.067 36.7648L147.013 37.8203ZM160.945 37.8203L161.891 36.7648L161.487 36.403H160.945V37.8203ZM165.958 42.3125H167.376V41.6794L166.904 41.2569L165.958 42.3125ZM165.958 52.4687L165.207 53.6703L167.376 55.027V52.4687H165.958ZM158.048 47.5208H156.631V48.306L157.297 48.7224L158.048 47.5208ZM158.048 44.6562H159.466V43.2389H158.048V44.6562ZM149.91 44.6562V43.2389H148.493V44.6562H149.91ZM149.91 51.8828H148.493V52.571L149.034 52.9966L149.91 51.8828ZM165.958 64.513H167.376V63.8248L166.835 63.3992L165.958 64.513ZM165.958 80.0078L166.904 81.0633L167.376 80.6409V80.0078H165.958ZM160.945 84.5V85.9173H161.487L161.891 85.5555L160.945 84.5ZM147.013 84.5L146.067 85.5555L146.471 85.9173H147.013V84.5ZM142 80.0078H140.583V80.6409L141.054 81.0633L142 80.0078ZM142 69.8516L142.752 68.6499L140.583 67.2932V69.8516H142ZM149.91 74.7995H151.327V74.0143L150.662 73.5979L149.91 74.7995ZM149.91 77.6641H148.493V79.0814H149.91V77.6641ZM158.048 77.6641V79.0814H159.466V77.6641H158.048ZM158.048 68.0286H159.466V67.3372L158.921 66.9116L158.048 68.0286ZM142 55.4961H140.583V56.1875L141.128 56.6131L142 55.4961ZM142 42.3125L141.054 41.2569L140.583 41.6794V42.3125H142ZM147.013 39.2376H160.945V36.403H147.013V39.2376ZM159.999 38.8758L165.012 43.368L166.904 41.2569L161.891 36.7648L159.999 38.8758ZM164.541 42.3125V52.4687H167.376V42.3125H164.541ZM166.71 51.2671L158.8 46.3192L157.297 48.7224L165.207 53.6703L166.71 51.2671ZM159.466 47.5208V44.6562H156.631V47.5208H159.466ZM158.048 43.2389H149.91V46.0735H158.048V43.2389ZM148.493 44.6562V51.8828H151.327V44.6562H148.493ZM149.034 52.9966L165.082 65.6268L166.835 63.3992L150.787 50.769L149.034 52.9966ZM164.541 64.513V80.0078H167.376V64.513H164.541ZM165.012 78.9523L159.999 83.4445L161.891 85.5555L166.904 81.0633L165.012 78.9523ZM160.945 83.0827H147.013V85.9173H160.945V83.0827ZM147.959 83.4445L142.946 78.9523L141.054 81.0633L146.067 85.5555L147.959 83.4445ZM143.417 80.0078V69.8516H140.583V80.0078H143.417ZM141.248 71.0532L149.159 76.0011L150.662 73.5979L142.752 68.6499L141.248 71.0532ZM148.493 74.7995V77.6641H151.327V74.7995H148.493ZM149.91 79.0814H158.048V76.2467H149.91V79.0814ZM159.466 77.6641V68.0286H156.631V77.6641H159.466ZM158.921 66.9116L142.872 54.379L141.128 56.6131L157.176 69.1457L158.921 66.9116ZM143.417 55.4961V42.3125H140.583V55.4961H143.417ZM142.946 43.368L147.959 38.8758L146.067 36.7648L141.054 41.2569L142.946 43.368ZM170.841 37.8203L170.846 36.403L169.424 36.3981V37.8203H170.841ZM189.754 37.8854L190.699 36.8295L190.298 36.4699L189.759 36.4681L189.754 37.8854ZM194.734 42.345H196.152V41.7116L195.68 41.2891L194.734 42.345ZM194.734 59.0768L195.68 60.1327L196.152 59.7102V59.0768H194.734ZM189.754 63.5364V64.9538H190.296L190.699 64.5923L189.754 63.5364ZM179.533 63.5364L178.483 62.5841L176.333 64.9538H179.533V63.5364ZM186.857 55.4635L187.906 56.4159L188.274 56.0107V55.4635H186.857ZM186.857 44.6888H188.274V43.2715H186.857V44.6888ZM178.719 44.6888V43.2715H177.301V44.6888H178.719ZM178.719 84.5V85.9173H180.136V84.5H178.719ZM170.841 84.5H169.424V85.9173H170.841V84.5ZM170.836 39.2376L189.749 39.3027L189.759 36.4681L170.846 36.403L170.836 39.2376ZM188.808 38.9413L193.789 43.4009L195.68 41.2891L190.699 36.8295L188.808 38.9413ZM193.317 42.345V59.0768H196.152V42.345H193.317ZM193.789 58.0209L188.808 62.4806L190.699 64.5923L195.68 60.1327L193.789 58.0209ZM189.754 62.1191H179.533V64.9538H189.754V62.1191ZM180.582 64.4888L187.906 56.4159L185.807 54.5112L178.483 62.5841L180.582 64.4888ZM188.274 55.4635V44.6888H185.439V55.4635H188.274ZM186.857 43.2715H178.719V46.1061H186.857V43.2715ZM177.301 44.6888V84.5H180.136V44.6888H177.301ZM178.719 83.0827H170.841V85.9173H178.719V83.0827ZM172.258 84.5V37.8203H169.424V84.5H172.258ZM204.63 37.8203V36.403H204.088L203.684 36.7648L204.63 37.8203ZM218.563 37.8203L219.508 36.7648L219.105 36.403H218.563V37.8203ZM223.576 42.3125H224.993V41.6794L224.521 41.2569L223.576 42.3125ZM223.576 80.0078L224.521 81.0633L224.993 80.6409V80.0078H223.576ZM218.563 84.5V85.9173H219.105L219.508 85.5555L218.563 84.5ZM204.63 84.5L203.684 85.5555L204.088 85.9173H204.63V84.5ZM199.617 80.0078H198.2V80.6409L198.671 81.0633L199.617 80.0078ZM199.617 42.3125L198.671 41.2569L198.2 41.6794V42.3125H199.617ZM207.527 44.6562V43.2389H206.11V44.6562H207.527ZM207.527 77.6641H206.11V79.0814H207.527V77.6641ZM215.665 77.6641V79.0814H217.083V77.6641H215.665ZM215.665 44.6562H217.083V43.2389H215.665V44.6562ZM204.63 39.2376H218.563V36.403H204.63V39.2376ZM217.617 38.8758L222.63 43.368L224.521 41.2569L219.508 36.7648L217.617 38.8758ZM222.158 42.3125V80.0078H224.993V42.3125H222.158ZM222.63 78.9523L217.617 83.4445L219.508 85.5555L224.521 81.0633L222.63 78.9523ZM218.563 83.0827H204.63V85.9173H218.563V83.0827ZM205.576 83.4445L200.563 78.9523L198.671 81.0633L203.684 85.5555L205.576 83.4445ZM201.035 80.0078V42.3125H198.2V80.0078H201.035ZM200.563 43.368L205.576 38.8758L203.684 36.7648L198.671 41.2569L200.563 43.368ZM206.11 44.6562V77.6641H208.945V44.6562H206.11ZM207.527 79.0814H215.665V76.2467H207.527V79.0814ZM217.083 77.6641V44.6562H214.248V77.6641H217.083ZM215.665 43.2389H207.527V46.0735H215.665V43.2389ZM234.676 37.8203V36.403H234.037L233.614 36.8814L234.676 37.8203ZM253.296 37.8203L254.713 37.8268L254.72 36.403H253.296V37.8203ZM253.263 44.8515V46.2689H254.674L254.68 44.8581L253.263 44.8515ZM245.711 44.8515V43.4342H244.294V44.8515H245.711ZM245.711 84.5V85.9173H247.128V84.5H245.711ZM237.931 84.5H236.514V85.9173H237.931V84.5ZM237.931 44.8515H239.348V43.4342H237.931V44.8515ZM228.458 44.8515L227.397 43.9127L225.313 46.2689H228.458V44.8515ZM234.676 39.2376H253.296V36.403H234.676V39.2376ZM251.878 37.8137L251.846 44.845L254.68 44.8581L254.713 37.8268L251.878 37.8137ZM253.263 43.4342H245.711V46.2689H253.263V43.4342ZM244.294 44.8515V84.5H247.128V44.8515H244.294ZM245.711 83.0827H237.931V85.9173H245.711V83.0827ZM239.348 84.5V44.8515H236.514V84.5H239.348ZM237.931 43.4342H228.458V46.2689H237.931V43.4342ZM229.52 45.7904L235.738 38.7592L233.614 36.8814L227.397 43.9127L229.52 45.7904ZM264.428 37.8203V36.403H263.79L263.367 36.8814L264.428 37.8203ZM283.048 37.8203L284.466 37.8268L284.472 36.403H283.048V37.8203ZM283.016 44.8515V46.2689H284.426L284.433 44.8581L283.016 44.8515ZM275.464 44.8515V43.4342H274.046V44.8515H275.464ZM275.464 84.5V85.9173H276.881V84.5H275.464ZM267.684 84.5H266.266V85.9173H267.684V84.5ZM267.684 44.8515H269.101V43.4342H267.684V44.8515ZM258.211 44.8515L257.149 43.9127L255.066 46.2689H258.211V44.8515ZM264.428 39.2376H283.048V36.403H264.428V39.2376ZM281.631 37.8137L281.598 44.845L284.433 44.8581L284.466 37.8268L281.631 37.8137ZM283.016 43.4342H275.464V46.2689H283.016V43.4342ZM274.046 44.8515V84.5H276.881V44.8515H274.046ZM275.464 83.0827H267.684V85.9173H275.464V83.0827ZM269.101 84.5V44.8515H266.266V84.5H269.101ZM267.684 43.4342H258.211V46.2689H267.684V43.4342ZM259.273 45.7904L265.49 38.7592L263.367 36.8814L257.149 43.9127L259.273 45.7904ZM287.964 37.8203V36.403H286.546V37.8203H287.964ZM307.723 37.8203H309.14V36.403H307.723V37.8203ZM307.723 44.8515V46.2689H309.14V44.8515H307.723ZM295.776 44.8515V43.4342H294.359V44.8515H295.776ZM295.776 57.2213H294.359V58.6387H295.776V57.2213ZM306.16 57.2213L307.213 58.17L309.345 55.804H306.16V57.2213ZM299.943 64.1224V65.5397H300.574L300.996 65.0711L299.943 64.1224ZM295.776 64.1224V62.7051H294.359V64.1224H295.776ZM295.776 77.4687H294.359V78.8861H295.776V77.4687ZM307.918 77.4687H309.335V76.0514H307.918V77.4687ZM307.918 84.5V85.9173H309.335V84.5H307.918ZM287.964 84.5H286.546V85.9173H287.964V84.5ZM287.964 39.2376H307.723V36.403H287.964V39.2376ZM306.305 37.8203V44.8515H309.14V37.8203H306.305ZM307.723 43.4342H295.776V46.2689H307.723V43.4342ZM294.359 44.8515V57.2213H297.193V44.8515H294.359ZM295.776 58.6387H306.16V55.804H295.776V58.6387ZM305.107 56.2726L298.89 63.1737L300.996 65.0711L307.213 58.17L305.107 56.2726ZM299.943 62.7051H295.776V65.5397H299.943V62.7051ZM294.359 64.1224V77.4687H297.193V64.1224H294.359ZM295.776 78.8861H307.918V76.0514H295.776V78.8861ZM306.501 77.4687V84.5H309.335V77.4687H306.501ZM307.918 83.0827H287.964V85.9173H307.918V83.0827ZM289.381 84.5V37.8203H286.546V84.5H289.381ZM312.833 37.8203L312.838 36.403L311.416 36.3981V37.8203H312.833ZM331.746 37.8854L332.692 36.8295L332.29 36.4699L331.751 36.4681L331.746 37.8854ZM336.727 42.345H338.144V41.7116L337.672 41.2891L336.727 42.345ZM336.727 57.026L337.674 58.0805L338.144 57.6581V57.026H336.727ZM329.695 63.3411L328.748 62.2867L328.057 62.9077L328.351 63.7893L329.695 63.3411ZM336.727 84.4349V85.8522H338.693L338.071 83.9867L336.727 84.4349ZM328.882 84.4349L327.537 84.8837L327.861 85.8522H328.882V84.4349ZM321.134 61.2252L320.165 60.1908L319.502 60.8121L319.79 61.674L321.134 61.2252ZM328.849 53.9987L329.818 55.0331L330.266 54.6131V53.9987H328.849ZM328.849 44.6888H330.266V43.2715H328.849V44.6888ZM320.711 44.6888V43.2715H319.294V44.6888H320.711ZM320.711 84.5V85.9173H322.128V84.5H320.711ZM312.833 84.5H311.416V85.9173H312.833V84.5ZM312.829 39.2376L331.741 39.3027L331.751 36.4681L312.838 36.403L312.829 39.2376ZM330.801 38.9413L335.781 43.4009L337.672 41.2891L332.692 36.8295L330.801 38.9413ZM335.309 42.345V57.026H338.144V42.345H335.309ZM335.78 55.9716L328.748 62.2867L330.642 64.3956L337.674 58.0805L335.78 55.9716ZM328.351 63.7893L335.382 84.8831L338.071 83.9867L331.04 62.8929L328.351 63.7893ZM336.727 83.0176H328.882V85.8522H336.727V83.0176ZM330.226 83.9861L322.479 60.7765L319.79 61.674L327.537 84.8837L330.226 83.9861ZM322.103 62.2596L329.818 55.0331L327.88 52.9643L320.165 60.1908L322.103 62.2596ZM330.266 53.9987V44.6888H327.432V53.9987H330.266ZM328.849 43.2715H320.711V46.1061H328.849V43.2715ZM319.294 44.6888V84.5H322.128V44.6888H319.294ZM320.711 83.0827H312.833V85.9173H320.711V83.0827ZM314.251 84.5V37.8203H311.416V84.5H314.251Z" fill="black"/>
<defs>
<filter id="filter0_d_84_10703" x="0" y="0" width="134" height="134" filterUnits="userSpaceOnUse" color-interpolation-filters="sRGB">
<feFlood flood-opacity="0" result="BackgroundImageFix"/>
<feColorMatrix in="SourceAlpha" type="matrix" values="0 0 0 0 0 0 0 0 0 0 0 0 0 0 0 0 0 0 127 0" result="hardAlpha"/>
<feOffset dy="4"/>
<feGaussianBlur stdDeviation="2"/>
<feComposite in2="hardAlpha" operator="out"/>
<feColorMatrix type="matrix" values="0 0 0 0 0 0 0 0 0 0 0 0 0 0 0 0 0 0 0.25 0"/>
<feBlend mode="normal" in2="BackgroundImageFix" result="effect1_dropShadow_84_10703"/>
<feBlend mode="normal" in="SourceGraphic" in2="effect1_dropShadow_84_10703" result="shape"/>
</filter>
</defs>
</svg>
